<svg xmlns="http://www.w3.org/2000/svg" width="264" height="264" viewBox="0 0 264 264">
<rect width="100%" height="100%" rx="14" fill="#ffffff"/>
<rect x="4" y="4" width="256" height="256" rx="14" fill="none" stroke="#dfeee4" stroke-width="4"/>
<rect x="16" y="16" width="56" height="56" fill="#0f1f17"/>
<rect x="24" y="24" width="40" height="40" fill="#ffffff"/>
<rect x="32" y="32" width="24" height="24" fill="#0f1f17"/>
<rect x="40" y="40" width="8" height="8" fill="#0f1f17"/>
<rect x="192" y="16" width="56" height="56" fill="#0f1f17"/>
<rect x="200" y="24" width="40" height="40" fill="#ffffff"/>
<rect x="208" y="32" width="24" height="24" fill="#0f1f17"/>
<rect x="216" y="40" width="8" height="8" fill="#0f1f17"/>
<rect x="16" y="192" width="56" height="56" fill="#0f1f17"/>
<rect x="24" y="200" width="40" height="40" fill="#ffffff"/>
<rect x="32" y="208" width="24" height="24" fill="#0f1f17"/>
<rect x="40" y="216" width="8" height="8" fill="#0f1f17"/>
<rect x="80" y="16" width="8" height="8" fill="#0f1f17"/>
<rect x="88" y="16" width="8" height="8" fill="#0f1f17"/>
<rect x="96" y="16" width="8" height="8" fill="#0f1f17"/>
<rect x="112" y="16" width="8" height="8" fill="#0f1f17"/>
<rect x="120" y="16" width="8" height="8" fill="#0f1f17"/>
<rect x="136" y="16" width="8" height="8" fill="#0f1f17"/>
<rect x="144" y="16" width="8" height="8" fill="#0f1f17"/>
<rect x="152" y="16" width="8" height="8" fill="#0f1f17"/>
<rect x="184" y="16" width="8" height="8" fill="#0f1f17"/>
<rect x="104" y="24" width="8" height="8" fill="#0f1f17"/>
<rect x="136" y="24" width="8" height="8" fill="#0f1f17"/>
<rect x="144" y="24" width="8" height="8" fill="#0f1f17"/>
<rect x="152" y="24" width="8" height="8" fill="#0f1f17"/>
<rect x="168" y="24" width="8" height="8" fill="#0f1f17"/>
<rect x="176" y="24" width="8" height="8" fill="#0f1f17"/>
<rect x="72" y="32" width="8" height="8" fill="#0f1f17"/>
<rect x="80" y="32" width="8" height="8" fill="#0f1f17"/>
<rect x="96" y="32" width="8" height="8" fill="#0f1f17"/>
<rect x="136" y="32" width="8" height="8" fill="#0f1f17"/>
<rect x="160" y="32" width="8" height="8" fill="#0f1f17"/>
<rect x="96" y="40" width="8" height="8" fill="#0f1f17"/>
<rect x="112" y="40" width="8" height="8" fill="#0f1f17"/>
<rect x="120" y="40" width="8" height="8" fill="#0f1f17"/>
<rect x="144" y="40" width="8" height="8" fill="#0f1f17"/>
<rect x="152" y="40" width="8" height="8" fill="#0f1f17"/>
<rect x="160" y="40" width="8" height="8" fill="#0f1f17"/>
<rect x="72" y="48" width="8" height="8" fill="#0f1f17"/>
<rect x="128" y="48" width="8" height="8" fill="#0f1f17"/>
<rect x="136" y="48" width="8" height="8" fill="#0f1f17"/>
<rect x="144" y="48" width="8" height="8" fill="#0f1f17"/>
<rect x="160" y="48" width="8" height="8" fill="#0f1f17"/>
<rect x="176" y="48" width="8" height="8" fill="#0f1f17"/>
<rect x="184" y="48" width="8" height="8" fill="#0f1f17"/>
<rect x="72" y="56" width="8" height="8" fill="#0f1f17"/>
<rect x="80" y="56" width="8" height="8" fill="#0f1f17"/>
<rect x="88" y="56" width="8" height="8" fill="#0f1f17"/>
<rect x="104" y="56" width="8" height="8" fill="#0f1f17"/>
<rect x="136" y="56" width="8" height="8" fill="#0f1f17"/>
<rect x="144" y="56" width="8" height="8" fill="#0f1f17"/>
<rect x="152" y="56" width="8" height="8" fill="#0f1f17"/>
<rect x="160" y="56" width="8" height="8" fill="#0f1f17"/>
<rect x="168" y="56" width="8" height="8" fill="#0f1f17"/>
<rect x="176" y="56" width="8" height="8" fill="#0f1f17"/>
<rect x="80" y="64" width="8" height="8" fill="#0f1f17"/>
<rect x="88" y="64" width="8" height="8" fill="#0f1f17"/>
<rect x="96" y="64" width="8" height="8" fill="#0f1f17"/>
<rect x="104" y="64" width="8" height="8" fill="#0f1f17"/>
<rect x="120" y="64" width="8" height="8" fill="#0f1f17"/>
<rect x="128" y="64" width="8" height="8" fill="#0f1f17"/>
<rect x="152" y="64" width="8" height="8" fill="#0f1f17"/>
<rect x="168" y="64" width="8" height="8" fill="#0f1f17"/>
<rect x="176" y="64" width="8" height="8" fill="#0f1f17"/>
<rect x="184" y="64" width="8" height="8" fill="#0f1f17"/>
<rect x="24" y="72" width="8" height="8" fill="#0f1f17"/>
<rect x="32" y="72" width="8" height="8" fill="#0f1f17"/>
<rect x="48" y="72" width="8" height="8" fill="#0f1f17"/>
<rect x="56" y="72" width="8" height="8" fill="#0f1f17"/>
<rect x="64" y="72" width="8" height="8" fill="#0f1f17"/>
<rect x="96" y="72" width="8" height="8" fill="#0f1f17"/>
<rect x="104" y="72" width="8" height="8" fill="#0f1f17"/>
<rect x="112" y="72" width="8" height="8" fill="#0f1f17"/>
<rect x="120" y="72" width="8" height="8" fill="#0f1f17"/>
<rect x="136" y="72" width="8" height="8" fill="#0f1f17"/>
<rect x="144" y="72" width="8" height="8" fill="#0f1f17"/>
<rect x="152" y="72" width="8" height="8" fill="#0f1f17"/>
<rect x="168" y="72" width="8" height="8" fill="#0f1f17"/>
<rect x="192" y="72" width="8" height="8" fill="#0f1f17"/>
<rect x="200" y="72" width="8" height="8" fill="#0f1f17"/>
<rect x="216" y="72" width="8" height="8" fill="#0f1f17"/>
<rect x="16" y="80" width="8" height="8" fill="#0f1f17"/>
<rect x="48" y="80" width="8" height="8" fill="#0f1f17"/>
<rect x="56" y="80" width="8" height="8" fill="#0f1f17"/>
<rect x="64" y="80" width="8" height="8" fill="#0f1f17"/>
<rect x="80" y="80" width="8" height="8" fill="#0f1f17"/>
<rect x="88" y="80" width="8" height="8" fill="#0f1f17"/>
<rect x="104" y="80" width="8" height="8" fill="#0f1f17"/>
<rect x="112" y="80" width="8" height="8" fill="#0f1f17"/>
<rect x="120" y="80" width="8" height="8" fill="#0f1f17"/>
<rect x="128" y="80" width="8" height="8" fill="#0f1f17"/>
<rect x="136" y="80" width="8" height="8" fill="#0f1f17"/>
<rect x="152" y="80" width="8" height="8" fill="#0f1f17"/>
<rect x="160" y="80" width="8" height="8" fill="#0f1f17"/>
<rect x="168" y="80" width="8" height="8" fill="#0f1f17"/>
<rect x="176" y="80" width="8" height="8" fill="#0f1f17"/>
<rect x="184" y="80" width="8" height="8" fill="#0f1f17"/>
<rect x="216" y="80" width="8" height="8" fill="#0f1f17"/>
<rect x="232" y="80" width="8" height="8" fill="#0f1f17"/>
<rect x="240" y="80" width="8" height="8" fill="#0f1f17"/>
<rect x="48" y="88" width="8" height="8" fill="#0f1f17"/>
<rect x="72" y="88" width="8" height="8" fill="#0f1f17"/>
<rect x="104" y="88" width="8" height="8" fill="#0f1f17"/>
<rect x="112" y="88" width="8" height="8" fill="#0f1f17"/>
<rect x="120" y="88" width="8" height="8" fill="#0f1f17"/>
<rect x="136" y="88" width="8" height="8" fill="#0f1f17"/>
<rect x="144" y="88" width="8" height="8" fill="#0f1f17"/>
<rect x="152" y="88" width="8" height="8" fill="#0f1f17"/>
<rect x="168" y="88" width="8" height="8" fill="#0f1f17"/>
<rect x="176" y="88" width="8" height="8" fill="#0f1f17"/>
<rect x="184" y="88" width="8" height="8" fill="#0f1f17"/>
<rect x="192" y="88" width="8" height="8" fill="#0f1f17"/>
<rect x="24" y="96" width="8" height="8" fill="#0f1f17"/>
<rect x="32" y="96" width="8" height="8" fill="#0f1f17"/>
<rect x="56" y="96" width="8" height="8" fill="#0f1f17"/>
<rect x="64" y="96" width="8" height="8" fill="#0f1f17"/>
<rect x="72" y="96" width="8" height="8" fill="#0f1f17"/>
<rect x="104" y="96" width="8" height="8" fill="#0f1f17"/>
<rect x="128" y="96" width="8" height="8" fill="#0f1f17"/>
<rect x="160" y="96" width="8" height="8" fill="#0f1f17"/>
<rect x="168" y="96" width="8" height="8" fill="#0f1f17"/>
<rect x="184" y="96" width="8" height="8" fill="#0f1f17"/>
<rect x="192" y="96" width="8" height="8" fill="#0f1f17"/>
<rect x="200" y="96" width="8" height="8" fill="#0f1f17"/>
<rect x="208" y="96" width="8" height="8" fill="#0f1f17"/>
<rect x="224" y="96" width="8" height="8" fill="#0f1f17"/>
<rect x="40" y="104" width="8" height="8" fill="#0f1f17"/>
<rect x="48" y="104" width="8" height="8" fill="#0f1f17"/>
<rect x="56" y="104" width="8" height="8" fill="#0f1f17"/>
<rect x="72" y="104" width="8" height="8" fill="#0f1f17"/>
<rect x="88" y="104" width="8" height="8" fill="#0f1f17"/>
<rect x="96" y="104" width="8" height="8" fill="#0f1f17"/>
<rect x="112" y="104" width="8" height="8" fill="#0f1f17"/>
<rect x="120" y="104" width="8" height="8" fill="#0f1f17"/>
<rect x="128" y="104" width="8" height="8" fill="#0f1f17"/>
<rect x="160" y="104" width="8" height="8" fill="#0f1f17"/>
<rect x="184" y="104" width="8" height="8" fill="#0f1f17"/>
<rect x="200" y="104" width="8" height="8" fill="#0f1f17"/>
<rect x="208" y="104" width="8" height="8" fill="#0f1f17"/>
<rect x="216" y="104" width="8" height="8" fill="#0f1f17"/>
<rect x="224" y="104" width="8" height="8" fill="#0f1f17"/>
<rect x="240" y="104" width="8" height="8" fill="#0f1f17"/>
<rect x="16" y="112" width="8" height="8" fill="#0f1f17"/>
<rect x="48" y="112" width="8" height="8" fill="#0f1f17"/>
<rect x="56" y="112" width="8" height="8" fill="#0f1f17"/>
<rect x="64" y="112" width="8" height="8" fill="#0f1f17"/>
<rect x="72" y="112" width="8" height="8" fill="#0f1f17"/>
<rect x="80" y="112" width="8" height="8" fill="#0f1f17"/>
<rect x="88" y="112" width="8" height="8" fill="#0f1f17"/>
<rect x="168" y="112" width="8" height="8" fill="#0f1f17"/>
<rect x="176" y="112" width="8" height="8" fill="#0f1f17"/>
<rect x="184" y="112" width="8" height="8" fill="#0f1f17"/>
<rect x="216" y="112" width="8" height="8" fill="#0f1f17"/>
<rect x="224" y="112" width="8" height="8" fill="#0f1f17"/>
<rect x="232" y="112" width="8" height="8" fill="#0f1f17"/>
<rect x="240" y="112" width="8" height="8" fill="#0f1f17"/>
<rect x="16" y="120" width="8" height="8" fill="#0f1f17"/>
<rect x="32" y="120" width="8" height="8" fill="#0f1f17"/>
<rect x="40" y="120" width="8" height="8" fill="#0f1f17"/>
<rect x="64" y="120" width="8" height="8" fill="#0f1f17"/>
<rect x="80" y="120" width="8" height="8" fill="#0f1f17"/>
<rect x="88" y="120" width="8" height="8" fill="#0f1f17"/>
<rect x="96" y="120" width="8" height="8" fill="#0f1f17"/>
<rect x="168" y="120" width="8" height="8" fill="#0f1f17"/>
<rect x="176" y="120" width="8" height="8" fill="#0f1f17"/>
<rect x="184" y="120" width="8" height="8" fill="#0f1f17"/>
<rect x="200" y="120" width="8" height="8" fill="#0f1f17"/>
<rect x="208" y="120" width="8" height="8" fill="#0f1f17"/>
<rect x="224" y="120" width="8" height="8" fill="#0f1f17"/>
<rect x="232" y="120" width="8" height="8" fill="#0f1f17"/>
<rect x="240" y="120" width="8" height="8" fill="#0f1f17"/>
<rect x="16" y="128" width="8" height="8" fill="#0f1f17"/>
<rect x="24" y="128" width="8" height="8" fill="#0f1f17"/>
<rect x="32" y="128" width="8" height="8" fill="#0f1f17"/>
<rect x="48" y="128" width="8" height="8" fill="#0f1f17"/>
<rect x="56" y="128" width="8" height="8" fill="#0f1f17"/>
<rect x="64" y="128" width="8" height="8" fill="#0f1f17"/>
<rect x="80" y="128" width="8" height="8" fill="#0f1f17"/>
<rect x="168" y="128" width="8" height="8" fill="#0f1f17"/>
<rect x="192" y="128" width="8" height="8" fill="#0f1f17"/>
<rect x="224" y="128" width="8" height="8" fill="#0f1f17"/>
<rect x="232" y="128" width="8" height="8" fill="#0f1f17"/>
<rect x="240" y="128" width="8" height="8" fill="#0f1f17"/>
<rect x="16" y="136" width="8" height="8" fill="#0f1f17"/>
<rect x="24" y="136" width="8" height="8" fill="#0f1f17"/>
<rect x="32" y="136" width="8" height="8" fill="#0f1f17"/>
<rect x="40" y="136" width="8" height="8" fill="#0f1f17"/>
<rect x="48" y="136" width="8" height="8" fill="#0f1f17"/>
<rect x="64" y="136" width="8" height="8" fill="#0f1f17"/>
<rect x="72" y="136" width="8" height="8" fill="#0f1f17"/>
<rect x="80" y="136" width="8" height="8" fill="#0f1f17"/>
<rect x="88" y="136" width="8" height="8" fill="#0f1f17"/>
<rect x="96" y="136" width="8" height="8" fill="#0f1f17"/>
<rect x="176" y="136" width="8" height="8" fill="#0f1f17"/>
<rect x="184" y="136" width="8" height="8" fill="#0f1f17"/>
<rect x="192" y="136" width="8" height="8" fill="#0f1f17"/>
<rect x="224" y="136" width="8" height="8" fill="#0f1f17"/>
<rect x="16" y="144" width="8" height="8" fill="#0f1f17"/>
<rect x="24" y="144" width="8" height="8" fill="#0f1f17"/>
<rect x="32" y="144" width="8" height="8" fill="#0f1f17"/>
<rect x="48" y="144" width="8" height="8" fill="#0f1f17"/>
<rect x="56" y="144" width="8" height="8" fill="#0f1f17"/>
<rect x="64" y="144" width="8" height="8" fill="#0f1f17"/>
<rect x="80" y="144" width="8" height="8" fill="#0f1f17"/>
<rect x="88" y="144" width="8" height="8" fill="#0f1f17"/>
<rect x="96" y="144" width="8" height="8" fill="#0f1f17"/>
<rect x="160" y="144" width="8" height="8" fill="#0f1f17"/>
<rect x="168" y="144" width="8" height="8" fill="#0f1f17"/>
<rect x="176" y="144" width="8" height="8" fill="#0f1f17"/>
<rect x="192" y="144" width="8" height="8" fill="#0f1f17"/>
<rect x="208" y="144" width="8" height="8" fill="#0f1f17"/>
<rect x="216" y="144" width="8" height="8" fill="#0f1f17"/>
<rect x="232" y="144" width="8" height="8" fill="#0f1f17"/>
<rect x="240" y="144" width="8" height="8" fill="#0f1f17"/>
<rect x="16" y="152" width="8" height="8" fill="#0f1f17"/>
<rect x="40" y="152" width="8" height="8" fill="#0f1f17"/>
<rect x="72" y="152" width="8" height="8" fill="#0f1f17"/>
<rect x="80" y="152" width="8" height="8" fill="#0f1f17"/>
<rect x="96" y="152" width="8" height="8" fill="#0f1f17"/>
<rect x="104" y="152" width="8" height="8" fill="#0f1f17"/>
<rect x="112" y="152" width="8" height="8" fill="#0f1f17"/>
<rect x="120" y="152" width="8" height="8" fill="#0f1f17"/>
<rect x="136" y="152" width="8" height="8" fill="#0f1f17"/>
<rect x="168" y="152" width="8" height="8" fill="#0f1f17"/>
<rect x="176" y="152" width="8" height="8" fill="#0f1f17"/>
<rect x="184" y="152" width="8" height="8" fill="#0f1f17"/>
<rect x="192" y="152" width="8" height="8" fill="#0f1f17"/>
<rect x="200" y="152" width="8" height="8" fill="#0f1f17"/>
<rect x="208" y="152" width="8" height="8" fill="#0f1f17"/>
<rect x="232" y="152" width="8" height="8" fill="#0f1f17"/>
<rect x="240" y="152" width="8" height="8" fill="#0f1f17"/>
<rect x="24" y="160" width="8" height="8" fill="#0f1f17"/>
<rect x="32" y="160" width="8" height="8" fill="#0f1f17"/>
<rect x="40" y="160" width="8" height="8" fill="#0f1f17"/>
<rect x="72" y="160" width="8" height="8" fill="#0f1f17"/>
<rect x="96" y="160" width="8" height="8" fill="#0f1f17"/>
<rect x="112" y="160" width="8" height="8" fill="#0f1f17"/>
<rect x="120" y="160" width="8" height="8" fill="#0f1f17"/>
<rect x="128" y="160" width="8" height="8" fill="#0f1f17"/>
<rect x="136" y="160" width="8" height="8" fill="#0f1f17"/>
<rect x="152" y="160" width="8" height="8" fill="#0f1f17"/>
<rect x="160" y="160" width="8" height="8" fill="#0f1f17"/>
<rect x="184" y="160" width="8" height="8" fill="#0f1f17"/>
<rect x="200" y="160" width="8" height="8" fill="#0f1f17"/>
<rect x="208" y="160" width="8" height="8" fill="#0f1f17"/>
<rect x="216" y="160" width="8" height="8" fill="#0f1f17"/>
<rect x="24" y="168" width="8" height="8" fill="#0f1f17"/>
<rect x="32" y="168" width="8" height="8" fill="#0f1f17"/>
<rect x="40" y="168" width="8" height="8" fill="#0f1f17"/>
<rect x="56" y="168" width="8" height="8" fill="#0f1f17"/>
<rect x="64" y="168" width="8" height="8" fill="#0f1f17"/>
<rect x="80" y="168" width="8" height="8" fill="#0f1f17"/>
<rect x="88" y="168" width="8" height="8" fill="#0f1f17"/>
<rect x="96" y="168" width="8" height="8" fill="#0f1f17"/>
<rect x="128" y="168" width="8" height="8" fill="#0f1f17"/>
<rect x="136" y="168" width="8" height="8" fill="#0f1f17"/>
<rect x="144" y="168" width="8" height="8" fill="#0f1f17"/>
<rect x="152" y="168" width="8" height="8" fill="#0f1f17"/>
<rect x="168" y="168" width="8" height="8" fill="#0f1f17"/>
<rect x="176" y="168" width="8" height="8" fill="#0f1f17"/>
<rect x="184" y="168" width="8" height="8" fill="#0f1f17"/>
<rect x="200" y="168" width="8" height="8" fill="#0f1f17"/>
<rect x="224" y="168" width="8" height="8" fill="#0f1f17"/>
<rect x="232" y="168" width="8" height="8" fill="#0f1f17"/>
<rect x="48" y="176" width="8" height="8" fill="#0f1f17"/>
<rect x="80" y="176" width="8" height="8" fill="#0f1f17"/>
<rect x="88" y="176" width="8" height="8" fill="#0f1f17"/>
<rect x="96" y="176" width="8" height="8" fill="#0f1f17"/>
<rect x="112" y="176" width="8" height="8" fill="#0f1f17"/>
<rect x="120" y="176" width="8" height="8" fill="#0f1f17"/>
<rect x="136" y="176" width="8" height="8" fill="#0f1f17"/>
<rect x="144" y="176" width="8" height="8" fill="#0f1f17"/>
<rect x="152" y="176" width="8" height="8" fill="#0f1f17"/>
<rect x="160" y="176" width="8" height="8" fill="#0f1f17"/>
<rect x="168" y="176" width="8" height="8" fill="#0f1f17"/>
<rect x="184" y="176" width="8" height="8" fill="#0f1f17"/>
<rect x="192" y="176" width="8" height="8" fill="#0f1f17"/>
<rect x="200" y="176" width="8" height="8" fill="#0f1f17"/>
<rect x="208" y="176" width="8" height="8" fill="#0f1f17"/>
<rect x="216" y="176" width="8" height="8" fill="#0f1f17"/>
<rect x="16" y="184" width="8" height="8" fill="#0f1f17"/>
<rect x="24" y="184" width="8" height="8" fill="#0f1f17"/>
<rect x="40" y="184" width="8" height="8" fill="#0f1f17"/>
<rect x="80" y="184" width="8" height="8" fill="#0f1f17"/>
<rect x="104" y="184" width="8" height="8" fill="#0f1f17"/>
<rect x="136" y="184" width="8" height="8" fill="#0f1f17"/>
<rect x="144" y="184" width="8" height="8" fill="#0f1f17"/>
<rect x="152" y="184" width="8" height="8" fill="#0f1f17"/>
<rect x="168" y="184" width="8" height="8" fill="#0f1f17"/>
<rect x="176" y="184" width="8" height="8" fill="#0f1f17"/>
<rect x="184" y="184" width="8" height="8" fill="#0f1f17"/>
<rect x="200" y="184" width="8" height="8" fill="#0f1f17"/>
<rect x="208" y="184" width="8" height="8" fill="#0f1f17"/>
<rect x="216" y="184" width="8" height="8" fill="#0f1f17"/>
<rect x="224" y="184" width="8" height="8" fill="#0f1f17"/>
<rect x="88" y="192" width="8" height="8" fill="#0f1f17"/>
<rect x="96" y="192" width="8" height="8" fill="#0f1f17"/>
<rect x="104" y="192" width="8" height="8" fill="#0f1f17"/>
<rect x="136" y="192" width="8" height="8" fill="#0f1f17"/>
<rect x="160" y="192" width="8" height="8" fill="#0f1f17"/>
<rect x="192" y="192" width="8" height="8" fill="#0f1f17"/>
<rect x="200" y="192" width="8" height="8" fill="#0f1f17"/>
<rect x="216" y="192" width="8" height="8" fill="#0f1f17"/>
<rect x="224" y="192" width="8" height="8" fill="#0f1f17"/>
<rect x="232" y="192" width="8" height="8" fill="#0f1f17"/>
<rect x="240" y="192" width="8" height="8" fill="#0f1f17"/>
<rect x="72" y="200" width="8" height="8" fill="#0f1f17"/>
<rect x="80" y="200" width="8" height="8" fill="#0f1f17"/>
<rect x="88" y="200" width="8" height="8" fill="#0f1f17"/>
<rect x="104" y="200" width="8" height="8" fill="#0f1f17"/>
<rect x="120" y="200" width="8" height="8" fill="#0f1f17"/>
<rect x="128" y="200" width="8" height="8" fill="#0f1f17"/>
<rect x="144" y="200" width="8" height="8" fill="#0f1f17"/>
<rect x="152" y="200" width="8" height="8" fill="#0f1f17"/>
<rect x="160" y="200" width="8" height="8" fill="#0f1f17"/>
<rect x="192" y="200" width="8" height="8" fill="#0f1f17"/>
<rect x="216" y="200" width="8" height="8" fill="#0f1f17"/>
<rect x="232" y="200" width="8" height="8" fill="#0f1f17"/>
<rect x="240" y="200" width="8" height="8" fill="#0f1f17"/>
<rect x="80" y="208" width="8" height="8" fill="#0f1f17"/>
<rect x="88" y="208" width="8" height="8" fill="#0f1f17"/>
<rect x="96" y="208" width="8" height="8" fill="#0f1f17"/>
<rect x="104" y="208" width="8" height="8" fill="#0f1f17"/>
<rect x="112" y="208" width="8" height="8" fill="#0f1f17"/>
<rect x="120" y="208" width="8" height="8" fill="#0f1f17"/>
<rect x="144" y="208" width="8" height="8" fill="#0f1f17"/>
<rect x="152" y="208" width="8" height="8" fill="#0f1f17"/>
<rect x="160" y="208" width="8" height="8" fill="#0f1f17"/>
<rect x="176" y="208" width="8" height="8" fill="#0f1f17"/>
<rect x="184" y="208" width="8" height="8" fill="#0f1f17"/>
<rect x="200" y="208" width="8" height="8" fill="#0f1f17"/>
<rect x="208" y="208" width="8" height="8" fill="#0f1f17"/>
<rect x="216" y="208" width="8" height="8" fill="#0f1f17"/>
<rect x="72" y="216" width="8" height="8" fill="#0f1f17"/>
<rect x="96" y="216" width="8" height="8" fill="#0f1f17"/>
<rect x="112" y="216" width="8" height="8" fill="#0f1f17"/>
<rect x="120" y="216" width="8" height="8" fill="#0f1f17"/>
<rect x="128" y="216" width="8" height="8" fill="#0f1f17"/>
<rect x="168" y="216" width="8" height="8" fill="#0f1f17"/>
<rect x="200" y="216" width="8" height="8" fill="#0f1f17"/>
<rect x="208" y="216" width="8" height="8" fill="#0f1f17"/>
<rect x="216" y="216" width="8" height="8" fill="#0f1f17"/>
<rect x="232" y="216" width="8" height="8" fill="#0f1f17"/>
<rect x="240" y="216" width="8" height="8" fill="#0f1f17"/>
<rect x="80" y="224" width="8" height="8" fill="#0f1f17"/>
<rect x="88" y="224" width="8" height="8" fill="#0f1f17"/>
<rect x="96" y="224" width="8" height="8" fill="#0f1f17"/>
<rect x="112" y="224" width="8" height="8" fill="#0f1f17"/>
<rect x="136" y="224" width="8" height="8" fill="#0f1f17"/>
<rect x="144" y="224" width="8" height="8" fill="#0f1f17"/>
<rect x="160" y="224" width="8" height="8" fill="#0f1f17"/>
<rect x="200" y="224" width="8" height="8" fill="#0f1f17"/>
<rect x="224" y="224" width="8" height="8" fill="#0f1f17"/>
<rect x="72" y="232" width="8" height="8" fill="#0f1f17"/>
<rect x="80" y="232" width="8" height="8" fill="#0f1f17"/>
<rect x="96" y="232" width="8" height="8" fill="#0f1f17"/>
<rect x="104" y="232" width="8" height="8" fill="#0f1f17"/>
<rect x="112" y="232" width="8" height="8" fill="#0f1f17"/>
<rect x="120" y="232" width="8" height="8" fill="#0f1f17"/>
<rect x="128" y="232" width="8" height="8" fill="#0f1f17"/>
<rect x="160" y="232" width="8" height="8" fill="#0f1f17"/>
<rect x="176" y="232" width="8" height="8" fill="#0f1f17"/>
<rect x="184" y="232" width="8" height="8" fill="#0f1f17"/>
<rect x="208" y="232" width="8" height="8" fill="#0f1f17"/>
<rect x="216" y="232" width="8" height="8" fill="#0f1f17"/>
<rect x="224" y="232" width="8" height="8" fill="#0f1f17"/>
<rect x="80" y="240" width="8" height="8" fill="#0f1f17"/>
<rect x="88" y="240" width="8" height="8" fill="#0f1f17"/>
<rect x="96" y="240" width="8" height="8" fill="#0f1f17"/>
<rect x="112" y="240" width="8" height="8" fill="#0f1f17"/>
<rect x="120" y="240" width="8" height="8" fill="#0f1f17"/>
<rect x="128" y="240" width="8" height="8" fill="#0f1f17"/>
<rect x="136" y="240" width="8" height="8" fill="#0f1f17"/>
<rect x="192" y="240" width="8" height="8" fill="#0f1f17"/>
<rect x="200" y="240" width="8" height="8" fill="#0f1f17"/>
<rect x="208" y="240" width="8" height="8" fill="#0f1f17"/>
<rect x="224" y="240" width="8" height="8" fill="#0f1f17"/>
<rect x="240" y="240" width="8" height="8" fill="#0f1f17"/>
<rect x="96" y="112" width="72" height="40" rx="6" fill="#e9fff1" stroke="#22a35a" stroke-width="2"/>
<text x="132.0" y="136" text-anchor="middle" font-family="Arial, sans-serif" font-size="15" font-weight="700" fill="#0f1f17">WALLET</text>
</svg>